<svg xmlns="http://www.w3.org/2000/svg" width="2338" height="224" fill="none" viewBox="0 0 2338 224"><path fill="#000" d="M167.208 0.407982C22.632 0.407982 0.455994 62.04 0.455994 106.968V115.608C0.455994 159.672 22.92 223.32 167.208 223.32H181.608C326.184 223.32 348.36 159.672 348.36 115.608V106.968C348.36 62.04 326.472 0.407982 181.608 0.407982H167.208ZM235.464 108.696V112.728C235.464 132.024 220.776 154.488 174.12 154.488C128.04 154.488 113.064 131.448 113.064 112.152V108.696C113.064 89.976 126.6 68.664 174.12 68.664C221.064 68.664 235.464 89.976 235.464 108.696Z"/><path fill="#000" d="M524.153 130.008H472.312L497.945 70.68L524.153 130.008ZM563.32 219H685.432L578.008 4.72799H424.216L323.129 219H433.721L444.953 193.368H552.089L563.32 219Z"/><path fill="#000" d="M797.66 219V133.464L885.788 219H1028.64L900.764 100.92L1028.06 4.72799H895.004L797.66 80.76V4.72799H688.22V219H797.66Z"/><path fill="#000" d="M1031.06 4.72799V219H1289.11V142.68H1140.5V4.72799H1031.06Z"/><path fill="#000" d="M1491.65 130.008H1439.81L1465.44 70.68L1491.65 130.008ZM1530.82 219H1652.93L1545.51 4.72799H1391.72L1290.63 219H1401.22L1412.45 193.368H1519.59L1530.82 219Z"/><path fill="#000" d="M1655.72 4.72799V219H1765.16V111.864L1878.06 219H1989.51V4.72799H1880.07V102.072L1779.27 4.72799H1655.72Z"/><path fill="#000" d="M2005.6 219H2177.24C2308.86 219 2337.95 168.312 2337.95 115.032V106.104C2337.95 50.52 2299.64 4.72799 2177.24 4.72799H2005.6V219ZM2115.04 71.256H2158.81C2219.87 71.256 2224.76 97.464 2224.76 110.136V111.864C2224.76 124.536 2220.73 152.76 2158.81 152.76H2115.04V71.256Z"/></svg>