<svg width="571" height="220" viewBox="0 0 571 220" fill="none" xmlns="http://www.w3.org/2000/svg">
<path d="M84.112 43.048C84.112 17.416 72.304 0.71199 45.232 0.71199H39.472C12.4 0.71199 0.591995 16.84 0.591995 43.048V177.544C0.591995 203.752 14.416 219.016 39.472 219.016H45.52C69.136 219.016 84.112 204.328 84.112 177.544V43.048ZM46.672 180.712C46.672 184.456 45.232 186.472 42.352 186.472C39.472 186.472 38.32 184.456 38.32 180.712V39.016C38.32 34.696 39.184 32.68 42.352 32.68C45.52 32.68 46.672 34.984 46.672 39.016V180.712Z" fill="black"/>
<path d="M128.676 147.016H120.035L124.355 65.512L128.676 147.016ZM132.419 217H167.844L148.548 2.728H102.467L84.6115 217H116.003L118.019 178.408H130.404L132.419 217Z" fill="black"/>
<path d="M206.193 217L205.904 132.616L217.137 217H255.152L236.721 99.784L254.289 2.728H218.001L205.904 79.912L206.193 2.728H169.904V217H206.193Z" fill="black"/>
<path d="M256.811 2.728V217H316.139L316.427 183.016H293.387L293.099 2.728H256.811Z" fill="black"/>
<path d="M362.394 147.016H353.754L358.074 65.512L362.394 147.016ZM366.138 217H401.562L382.266 2.728H336.186L318.33 217H349.722L351.738 178.408H364.122L366.138 217Z" fill="black"/>
<path d="M403.623 2.728V217H434.151L433.863 88.552L450.855 217H484.551V2.728H454.311L454.599 118.792L440.487 2.728H403.623Z" fill="black"/>
<path d="M489.686 217H542.39C558.23 217 570.038 206.92 570.038 184.456V33.544C570.038 10.792 557.654 2.728 541.814 2.728H489.686V217ZM525.398 32.104H528.854C532.31 32.104 533.174 34.408 533.174 38.728V179.56C533.174 184.456 532.31 186.76 528.854 186.76H525.398V32.104Z" fill="black"/>
</svg>
